<?xml version="1.0" standalone="no"?>
<!DOCTYPE svg PUBLIC "-//W3C//DTD SVG 20010904//EN"
 "http://www.w3.org/TR/2001/REC-SVG-20010904/DTD/svg10.dtd">
<svg version="1.0" xmlns="http://www.w3.org/2000/svg"
 width="584.000000pt" height="584.000000pt" viewBox="0 0 584.000000 584.000000"
 preserveAspectRatio="xMidYMid meet">

<g transform="translate(0.000000,584.000000) scale(0.100000,-0.100000)"
fill="#000000" stroke="none">
<path d="M0 2920 l0 -2920 2920 0 2920 0 0 2920 0 2920 -2920 0 -2920 0 0
-2920z m1000 678 l0 -743 32 53 c63 108 189 223 318 287 174 88 375 116 564
80 315 -60 584 -314 667 -630 29 -113 29 -297 1 -417 -70 -289 -319 -545 -607
-624 -81 -21 -297 -30 -377 -15 -219 43 -430 175 -544 342 l-49 71 -5 -193 -5
-193 -55 -1 -55 0 -3 1363 -2 1362 60 0 60 0 0 -742z m2070 -360 c0 -1202 -1
-1165 57 -1285 32 -64 137 -174 196 -204 69 -36 148 -59 199 -59 l48 0 0 -45
c0 -25 -1 -48 -2 -52 -4 -11 -94 -4 -161 13 -105 25 -185 72 -273 159 -57 57
-90 99 -113 145 -69 143 -65 56 -68 1303 l-4 1127 61 0 60 0 0 -1102z m1800 7
c0 -3 -87 -148 -194 -322 -596 -979 -726 -1194 -726 -1198 0 -3 207 -5 461 -5
l460 0 -3 -52 -3 -53 -557 -2 c-378 -1 -558 1 -558 8 0 9 58 106 420 704 54
88 188 310 298 493 l202 332 -415 0 -415 0 0 50 0 50 515 0 c283 0 515 -2 515
-5z"/>
<path d="M1597 3175 c-94 -18 -220 -77 -299 -139 -132 -105 -243 -271 -284
-426 -24 -88 -24 -272 0 -360 55 -209 217 -404 414 -500 178 -87 415 -94 595
-18 168 70 330 228 402 393 45 101 59 172 59 305 0 187 -40 312 -145 453 -100
133 -266 248 -407 283 -89 22 -245 26 -335 9z"/>
</g>
</svg>
